<?xml version="1.0" standalone="no"?>
<!DOCTYPE svg PUBLIC "-//W3C//DTD SVG 20010904//EN"
 "http://www.w3.org/TR/2001/REC-SVG-20010904/DTD/svg10.dtd">
<svg version="1.0" xmlns="http://www.w3.org/2000/svg"
 width="520.000000pt" height="520.000000pt" viewBox="0 0 520.000000 520.000000"
 preserveAspectRatio="xMidYMid meet">

<g transform="translate(0.000000,520.000000) scale(0.100000,-0.100000)"
fill="#000000" stroke="none">
<path d="M1260 4391 c0 -279 -4 -442 -10 -446 -6 -4 -11 146 -12 430 l-3 436
-90 -62 c-592 -403 -992 -1026 -1105 -1722 -118 -725 64 -1442 515 -2025 103
-133 293 -327 414 -422 89 -70 263 -192 267 -187 2 2 4 275 4 607 1 368 5 598
11 589 5 -8 9 -272 9 -616 0 -395 3 -603 10 -603 7 0 10 202 10 585 l0 585 48
-48 c26 -27 60 -57 75 -67 25 -16 26 -20 12 -28 -11 -6 -15 -16 -11 -33 5 -18
3 -22 -9 -18 -22 9 -18 -14 5 -26 11 -6 20 -16 20 -22 0 -9 -3 -9 -12 0 -7 7
-21 12 -32 12 -19 -1 -18 -3 9 -26 27 -24 23 -25 -20 -8 -26 11 -16 -22 10
-34 14 -7 28 -12 30 -12 9 0 35 60 35 80 0 11 7 23 15 26 17 7 20 30 5 39 -6
4 -9 3 -8 -2 3 -8 -5 -13 -22 -13 -5 0 -10 4 -10 9 0 20 38 16 95 -11 186 -86
402 -74 581 33 124 75 234 237 270 396 15 69 16 116 10 423 -4 190 -9 359 -11
375 -2 17 -6 131 -10 255 -15 577 -19 648 -46 748 -63 237 -249 426 -484 494
-44 13 -88 31 -97 41 -19 18 -43 24 -33 7 3 -5 13 -10 21 -10 8 0 14 -3 14 -7
0 -5 -30 -8 -67 -8 -83 0 -157 -9 -201 -25 -22 -8 -36 -9 -45 -2 -15 13 -69 3
-64 -12 2 -6 19 -10 38 -9 l34 3 -33 -15 c-18 -8 -39 -12 -47 -9 -10 4 -15 0
-15 -15 0 -12 -6 -21 -15 -21 -8 0 -15 -4 -15 -10 0 -5 -4 -10 -10 -10 -7 0
-10 148 -10 425 0 277 -3 425 -10 425 -7 0 -10 -153 -10 -439z m549 -440 c154
-48 287 -188 346 -366 32 -93 41 -204 50 -566 l6 -266 -168 -6 c-92 -4 -319
-10 -504 -13 l-337 -7 -6 99 c-3 54 -7 223 -9 374 -2 261 -1 279 21 355 90
309 343 476 601 396z m-549 -1411 c0 -49 -4 -90 -9 -90 -5 0 -9 41 -10 90 -1
57 2 90 9 90 6 0 10 -34 10 -90z m90 81 c0 -5 -10 -11 -22 -14 l-21 -6 23 -19
24 -19 -32 5 c-26 3 -31 1 -26 -11 3 -8 1 -18 -5 -22 -7 -4 -11 11 -11 44 l0
51 35 0 c19 0 35 -4 35 -9z m645 -6 c44 -1 112 -3 151 -4 l71 -1 2 -142 c2
-79 4 -156 6 -173 3 -16 5 -116 5 -221 1 -214 -9 -276 -62 -376 -42 -79 -107
-142 -191 -183 -85 -41 -148 -55 -237 -50 -116 6 -229 60 -314 151 -47 49
-100 140 -87 148 4 3 17 -12 29 -32 20 -35 91 -112 137 -147 l20 -15 -20 6
c-20 5 -20 5 -1 -7 11 -7 32 -14 48 -15 16 -2 42 -11 60 -20 17 -9 66 -18 108
-21 75 -6 78 -5 95 20 41 63 3 137 -70 137 -105 0 -247 105 -274 202 -7 26
-22 56 -32 67 -16 17 -18 25 -9 41 6 11 8 20 4 20 -4 0 0 8 8 18 23 25 31 61
18 77 -9 11 -7 12 9 8 12 -3 21 -1 21 6 0 6 -6 11 -12 11 -7 0 -23 3 -35 6
-30 8 -30 -12 -1 -45 13 -14 16 -20 8 -13 -20 17 -57 15 -64 -4 -9 -23 4 -38
17 -19 10 13 12 12 12 -9 0 -20 -3 -22 -18 -14 -29 15 -34 -1 -7 -22 14 -10
21 -22 17 -26 -4 -4 -13 -2 -19 4 -15 15 -38 16 -38 1 0 -6 -10 -19 -21 -28
-23 -18 -29 -62 -17 -116 7 -29 7 -29 -10 5 -25 51 -32 470 -8 470 9 0 16 9
16 21 0 11 -4 17 -10 14 -5 -3 -10 -4 -10 -1 0 2 -3 11 -6 20 -4 10 -1 16 9
16 9 0 18 13 22 33 4 17 13 42 21 55 11 17 12 22 2 22 -7 0 -5 5 5 11 15 9 16
13 5 27 -11 13 -11 15 4 9 24 -9 50 70 27 83 -12 8 368 5 616 -5z m-690 -125
c3 -5 2 -10 -4 -10 -5 0 -13 5 -16 10 -3 6 -2 10 4 10 5 0 13 -4 16 -10z m-49
-91 c2 -18 1 -30 -2 -27 -3 3 -7 20 -9 38 -3 18 -2 30 2 27 3 -4 7 -21 9 -38z
m1 -176 c-2 -16 -4 -5 -4 22 0 28 2 40 4 28 2 -13 2 -35 0 -50z m70 -445 c-3
-8 -6 -5 -6 6 -1 11 2 17 5 13 3 -3 4 -12 1 -19z"/>
<path d="M1630 2601 c0 -11 49 -31 54 -23 3 5 -8 13 -25 19 -16 6 -29 8 -29 4z"/>
<path d="M1592 2499 c2 -6 7 -10 11 -10 4 1 17 1 30 2 21 0 21 1 2 9 -28 12
-47 12 -43 -1z"/>
<path d="M1570 2469 c0 -8 35 -39 45 -39 4 0 2 7 -5 15 -10 12 -9 15 5 15 10
0 15 3 12 7 -9 8 -57 11 -57 2z"/>
<path d="M1550 2419 c0 -4 6 -11 12 -15 9 -6 5 -10 -12 -14 l-24 -6 24 -22
c27 -25 49 -30 30 -7 -10 12 -9 15 5 15 14 0 15 3 5 15 -10 12 -9 15 4 15 10
0 15 4 12 9 -7 11 -56 21 -56 10z"/>
<path d="M1518 2329 c16 -18 15 -29 -3 -29 -8 0 -15 -4 -15 -9 0 -12 42 -42
49 -35 3 3 -1 9 -9 14 -13 8 -12 10 3 10 14 0 17 5 12 20 -5 15 -3 18 9 14 9
-3 16 -1 16 5 0 6 -6 11 -12 11 -7 0 -24 3 -38 6 -21 6 -23 4 -12 -7z"/>
<path d="M1480 2260 c0 -5 5 -10 10 -10 6 0 10 5 10 10 0 6 -4 10 -10 10 -5 0
-10 -4 -10 -10z"/>
<path d="M1466 2232 c-3 -5 8 -16 24 -25 16 -10 31 -14 34 -9 3 5 -8 16 -24
25 -16 10 -31 14 -34 9z"/>
<path d="M1450 2201 c0 -5 9 -13 20 -16 11 -3 20 -13 20 -21 0 -12 -4 -12 -21
-4 -11 6 -25 9 -32 7 -7 -2 3 -12 22 -21 28 -15 35 -15 42 -4 16 24 9 45 -16
56 -31 14 -35 15 -35 3z"/>
<path d="M1750 2156 c0 -2 7 -9 15 -16 13 -11 14 -10 9 4 -5 14 -24 23 -24 12z"/>
<path d="M1720 2086 c0 -2 7 -7 16 -10 8 -3 12 -2 9 4 -6 10 -25 14 -25 6z"/>
<path d="M1710 2062 c0 -5 11 -14 25 -20 14 -6 25 -10 25 -8 0 2 -11 11 -25
20 -14 9 -25 13 -25 8z"/>
<path d="M1704 2016 c11 -9 24 -16 30 -16 12 0 7 5 -24 19 -24 11 -24 11 -6
-3z"/>
<path d="M1690 1955 c27 -29 42 -34 16 -6 -17 19 -17 20 6 24 17 3 14 5 -11 6
l-34 1 23 -25z"/>
<path d="M1647 1933 c-4 -3 -7 -11 -7 -17 0 -6 4 -6 11 1 9 9 15 8 25 -2 18
-18 18 -29 -1 -21 -8 3 -15 1 -15 -4 0 -16 30 -11 36 5 11 27 -30 58 -49 38z"/>
<path d="M1644 1865 c11 -8 24 -15 30 -15 5 0 1 7 -10 15 -10 8 -23 14 -29 14
-5 0 -1 -6 9 -14z"/>
<path d="M1610 1839 c0 -9 48 -24 55 -17 2 2 -9 9 -25 15 -17 6 -30 7 -30 2z"/>
<path d="M1590 1800 c0 -5 9 -10 20 -10 10 0 23 -7 27 -15 5 -9 13 -11 22 -6
10 6 5 13 -19 25 -38 19 -50 20 -50 6z"/>
<path d="M1580 1772 c0 -5 11 -14 25 -20 29 -13 33 -5 8 14 -21 15 -33 18 -33
6z"/>
<path d="M1580 1736 c0 -2 7 -7 16 -10 8 -3 12 -2 9 4 -6 10 -25 14 -25 6z"/>
<path d="M1731 4197 c2 -1 13 -9 24 -17 19 -14 19 -14 6 3 -7 9 -18 17 -24 17
-6 0 -8 -1 -6 -3z"/>
<path d="M1717 4159 c7 -7 15 -10 18 -7 3 3 -2 9 -12 12 -14 6 -15 5 -6 -5z"/>
<path d="M2938 3786 c-200 -58 -339 -200 -414 -422 -34 -102 -42 -239 -21
-339 30 -139 47 -172 275 -540 58 -93 151 -244 207 -335 56 -91 153 -247 216
-348 63 -100 122 -197 133 -215 182 -317 495 -446 804 -331 240 88 396 346
379 624 -14 224 -57 311 -498 1018 -35 56 -73 117 -83 135 -84 140 -333 520
-363 553 -171 189 -411 264 -635 200z m227 -131 c112 -23 207 -76 295 -164 61
-60 118 -137 264 -360 103 -156 186 -285 184 -286 -20 -20 -834 -553 -839
-550 -20 13 -384 585 -406 637 -94 232 -59 475 89 614 115 109 247 144 413
109z m851 -1027 c31 -51 65 -106 74 -123 10 -16 48 -79 85 -140 146 -239 195
-369 195 -514 0 -177 -73 -315 -213 -405 -71 -46 -137 -67 -228 -73 -180 -13
-341 85 -464 282 -20 33 -48 76 -60 95 -33 51 -206 333 -232 379 l-22 39 62
42 c34 24 103 71 152 105 50 34 182 125 295 202 113 76 225 153 249 171 24 18
45 32 46 32 2 0 29 -42 61 -92z"/>
<path d="M4198 2073 c-24 -29 -29 -53 -17 -95 5 -22 10 -69 10 -104 0 -86 -31
-153 -104 -224 -49 -47 -57 -60 -57 -92 0 -41 35 -78 75 -78 57 0 174 133 212
242 22 64 25 242 4 300 -21 63 -89 90 -123 51z"/>
<path d="M1662 1258 c-17 -17 -15 -36 6 -46 23 -13 42 -4 42 18 0 25 -33 43
-48 28z m38 -23 c0 -8 -9 -15 -20 -15 -11 0 -20 7 -20 15 0 8 9 15 20 15 11 0
20 -7 20 -15z"/>
<path d="M1650 1185 c14 -8 30 -14 35 -14 6 0 -1 6 -15 14 -14 8 -29 14 -35
14 -5 0 1 -6 15 -14z"/>
<path d="M1350 1165 c0 -8 7 -15 15 -15 8 0 15 4 15 9 0 5 -7 11 -15 15 -9 3
-15 0 -15 -9z"/>
<path d="M1620 1161 c0 -11 49 -31 54 -23 3 5 -8 13 -25 19 -16 6 -29 8 -29 4z"/>
<path d="M1616 1115 c10 -8 26 -14 34 -14 9 0 4 6 -10 14 -33 19 -49 19 -24 0z"/>
<path d="M1560 1033 c0 -5 5 -14 12 -21 9 -9 7 -12 -10 -12 -28 0 -28 -7 1
-31 l22 -20 -32 6 c-34 7 -42 -2 -21 -23 9 -9 7 -12 -12 -12 l-23 0 23 -25
c25 -27 51 -35 30 -10 -10 12 -10 15 4 15 19 0 21 11 4 29 -11 10 -10 11 3 6
17 -6 34 19 23 36 -3 5 3 9 12 9 14 0 15 3 6 12 -17 17 -15 28 6 21 11 -4 14
-3 7 4 -14 15 -55 26 -55 16z"/>
<path d="M1495 850 c5 -15 3 -18 -9 -14 -25 10 -18 -19 9 -39 26 -19 34 -11
13 12 -11 10 -9 11 6 5 16 -6 17 -4 11 16 -6 19 -4 22 9 17 9 -4 16 -2 16 2 0
10 -24 21 -46 21 -11 0 -13 -6 -9 -20z"/>
<path d="M1725 680 c3 -5 8 -10 11 -10 2 0 4 5 4 10 0 6 -5 10 -11 10 -5 0 -7
-4 -4 -10z"/>
<path d="M1758 683 c7 -3 16 -2 19 1 4 3 -2 6 -13 5 -11 0 -14 -3 -6 -6z"/>
<path d="M1691 616 c2 -2 15 -9 29 -15 24 -11 24 -11 6 3 -16 13 -49 24 -35
12z"/>
<path d="M1680 592 c0 -5 12 -14 26 -20 14 -7 23 -8 19 -2 -9 15 -45 32 -45
22z"/>
<path d="M1674 546 c21 -17 46 -21 46 -8 0 5 -6 9 -12 9 -7 0 -22 4 -33 8 -20
7 -20 6 -1 -9z"/>
<path d="M1640 512 c0 -5 12 -19 27 -33 25 -22 26 -22 9 -1 -19 22 -19 22 4
22 29 0 24 5 -12 14 -16 3 -28 3 -28 -2z"/>
<path d="M1617 463 c-4 -3 -7 -11 -7 -17 0 -6 4 -6 8 2 11 16 42 5 42 -15 0
-13 -2 -13 -17 -2 -14 12 -16 12 -12 0 7 -21 28 -25 35 -7 11 28 -29 59 -49
39z"/>
<path d="M1610 401 c0 -10 30 -24 37 -17 3 2 -5 9 -16 16 -12 6 -21 7 -21 1z"/>
</g>
</svg>
